<svg
	width="920"
	height="920"
	viewBox="0 0 920 920"
	fill="none"
	xmlns="http://www.w3.org/2000/svg"
>
	<style>
		path {
			fill: #000;
		}
		@media (prefers-color-scheme: dark) {
			path {
				fill: #fff;
			}
		}
	</style>
	<path
		fill-rule="evenodd"
		clip-rule="evenodd"
		d="M81.7776 372.062C75.3796 400.011 72 429.111 72 459C72 516.658 84.5766 571.379 107.136 620.568C111.469 613.77 115.076 605.077 118.598 596.588C121.192 590.336 123.741 584.194 126.5 579C135 563 153.451 548.177 169.5 549C183.834 549.735 196.641 559.741 208.111 568.702C212.245 571.931 216.205 575.025 220 577.5C231.5 585 240.5 586.5 248 582.5C255.837 578.32 253.5 574.262 251.306 570.452C250.829 569.622 250.358 568.805 250 568C248 563.5 251.5 545.5 262 542.5C272.5 539.5 285.5 542 291 549C296.5 556 297.75 568 295.5 577C294 583 294.417 590.5 299 593C303.583 595.5 312 589.5 315 586C318 582.5 325 580 334 581.5C343 583 359.5 603 355.5 613C351.5 623 340 631.5 331 630C322 628.5 315 629 324.5 636C334 643 347 658 344 667C341 676 332 681.5 324.5 681C317 680.5 311 679 307 672.5C303 666 301.5 667 303.5 674C305.5 681 306 688.5 300 692C294 695.5 284 700 276 695C268 690 263.5 676.5 263.5 667C263.5 657.5 258.5 654 255 665C254.41 666.854 253.948 668.594 253.518 670.213L253.518 670.214C251.397 678.203 250.056 683.253 238 684.5C223.5 686 211.5 673 211.5 663C211.5 653.446 219.259 645.717 224.748 640.25L225.047 639.952C225.2 639.799 225.351 639.649 225.5 639.5C231 634 230.5 633.5 225.5 631.5C225.314 631.426 225.112 631.344 224.896 631.257L224.859 631.242C219.219 628.97 203.745 622.736 197.5 628.5C193.058 632.6 193.52 643.939 193.938 654.219C194.132 658.982 194.317 663.517 194 667C193 678 187.5 698.5 182.5 712.5C180.746 717.412 179.484 722.015 178.628 726.16C230.149 780.404 297.19 819.764 372.637 837.125C415.349 839.974 444.083 830.081 502 793C584 740.5 644 681.5 675 609.5C695.609 561.634 704.727 520.618 703.235 482.192C652.792 486.668 606.309 494.462 571.5 502.5C553.207 506.724 535.738 513.242 520.013 520.814C517.78 530.833 515.857 541.761 514 554C503 626.5 479.555 646.601 445 632C409.5 617 423.283 569.61 440 550C450.912 537.2 467.196 525.368 486.042 515.097C488.969 494.776 493.544 475.947 500 459C512 427.5 536.685 390.213 569.5 361.5C605.5 330 660.044 286.279 714.5 353C739.276 383.357 751.497 423.777 757.035 463.942C788.2 463.14 819.012 463.021 847.98 463.003C847.993 461.67 848 460.336 848 459C848 244.714 674.286 71 460 71C356.485 71 262.439 111.537 192.868 177.602C193.946 181.211 195.541 184.068 198 186C205 191.5 227 206.5 239.5 205C247.06 204.093 251.877 195.503 256.163 187.86C258.963 182.867 261.536 178.278 264.5 176.5C272 172 306.5 164.5 341 170.5C375.5 176.5 427 203.5 429 230C431 256.5 382 292 338 303C294 314 276.5 311 264.5 303.5C258.532 299.77 256.521 294.185 254.839 289.512C253.14 284.79 251.775 281 247 281C237.5 281 206 309 199.5 324C193 339 194.5 385 214 390C229.6 394 239.5 387.333 242.5 383.5C240.167 378.667 236.9 366.9 242.5 358.5C249.5 348 262.5 351 267.5 358.5C272.5 366 270 376 269.5 378C269 380 272.5 383.5 273.5 379.5C274.5 375.5 280 360 288.5 360C297 360 310.5 365.5 308 377C306.225 385.163 303.795 388.156 302.454 388.844C308.311 386.881 320.324 384.766 325 391C331 399 329 409.5 325 412.5C321 415.5 304 417.5 302 417.5C300 417.5 299 419.5 300.5 420.5C302 421.5 321 436 320 445.5C319 455 305.5 465.5 294.5 461C286.817 457.857 284.988 450.811 283.561 445.314C282.945 442.941 282.405 440.857 281.5 439.5C278.5 435 271 436.5 268.5 442C267.9 443.319 267.387 445.702 266.774 448.549C264.83 457.574 261.882 471.26 252 470.5C239 469.5 234 462.5 234 454C234 445.581 240.377 438.143 243.413 434.601L243.5 434.5C246.5 431 240.5 422.5 228.5 423.5C227.263 423.603 225.818 423.733 224.206 423.878C210.179 425.137 183.453 427.536 170 423.5C155 419 149.5 404 148.5 393C147.5 382 138.5 347 117.5 344C104.818 342.188 91.5893 356.241 81.7776 372.062ZM847.53 478.271C841.734 596.766 782.781 701.294 694.013 768.514C699.477 757.2 705.96 744.495 712.5 733C729 704 753.5 645.5 758 592.5C760.243 566.083 763.231 523.393 758.792 478.794C762.523 478.673 766.26 478.575 770 478.5C806.157 477.777 831.93 478.03 847.53 478.271ZM40 459C40 227.04 228.04 39 460 39C691.96 39 880 227.04 880 459C880 690.96 691.96 879 460 879C228.04 879 40 690.96 40 459ZM693 425.5C697.357 438.934 700.366 452.426 701.985 466.182C655.682 468.873 610.541 473.837 571.5 483C556.875 486.432 541.582 491.067 526.632 496.692C537.084 465.684 554.08 441.748 588.5 407C641 354 675 370 693 425.5ZM459 563C440 583.5 439.5 602 454 607.5C468.5 613 481.5 612.5 482 570.5C482.114 560.93 482.487 551.568 483.138 542.443C473.1 549.568 464.871 556.666 459 563Z"
		fill="black"
	/>
</svg>
